<svg aria-hidden="true" style="position: absolute; width: 0; height: 0; overflow: hidden;" version="1.1" xmlns="http://www.w3.org/2000/svg" xmlns:xlink="http://www.w3.org/1999/xlink">
<defs>
<symbol id="icon-qoutes" viewBox="0 0 40 32">
<path fill="#ff6d2c" style="fill: var(--color1, #ff6d2c)" d="M10.409 16.352c1.845 0 3.285 0.74 4.319 2.219 1.107 1.402 1.661 3.154 1.661 5.256 0 2.258-0.738 4.127-2.215 5.606-1.476 1.402-3.322 2.103-5.537 2.103-2.51 0-4.577-0.973-6.201-2.92s-2.436-4.477-2.436-7.592c0-4.361 1.329-8.332 3.986-11.914s6.607-6.619 11.848-9.11v2.92c-3.101 1.479-5.758 3.426-7.973 5.84-2.215 2.336-3.322 4.672-3.322 7.008 0 1.557 0.406 2.336 1.218 2.336 0.148 0 0.332-0.039 0.554-0.117 0.221-0.156 0.443-0.272 0.664-0.35 1.107-0.857 2.252-1.285 3.433-1.285zM33.441 16.352c1.845 0 3.285 0.74 4.318 2.219 1.107 1.402 1.661 3.154 1.661 5.256 0 2.258-0.738 4.127-2.215 5.606-1.477 1.402-3.322 2.103-5.537 2.103-2.51 0-4.577-0.973-6.201-2.92s-2.436-4.477-2.436-7.592c0-4.361 1.329-8.332 3.986-11.914s6.607-6.619 11.848-9.11v2.92c-3.1 1.479-5.758 3.426-7.973 5.84-2.215 2.336-3.322 4.672-3.322 7.008 0 1.557 0.406 2.336 1.218 2.336 0.148 0 0.332-0.039 0.554-0.117 0.221-0.156 0.443-0.272 0.664-0.35 1.107-0.857 2.252-1.285 3.433-1.285z"></path>
</symbol>
<symbol id="icon-bird" viewBox="0 0 39 32">
<path d="M34.801 7.733c0.025 0.339 0.025 0.679 0.025 1.018 0 10.351-7.999 22.279-22.618 22.279-4.504 0-8.688-1.285-12.207-3.515 0.64 0.073 1.255 0.097 1.92 0.097 3.716 0 7.137-1.236 9.869-3.345-3.495-0.073-6.424-2.327-7.433-5.43 0.492 0.073 0.984 0.121 1.501 0.121 0.714 0 1.428-0.097 2.092-0.267-3.643-0.727-6.375-3.879-6.375-7.685v-0.097c1.058 0.582 2.289 0.945 3.593 0.994-2.141-1.406-3.544-3.806-3.544-6.521 0-1.454 0.394-2.788 1.083-3.951 3.913 4.752 9.796 7.854 16.391 8.194-0.123-0.582-0.197-1.188-0.197-1.794 0-4.315 3.544-7.83 7.95-7.83 2.289 0 4.356 0.945 5.808 2.473 1.797-0.339 3.519-0.994 5.045-1.891-0.591 1.818-1.846 3.345-3.495 4.315 1.6-0.17 3.15-0.606 4.578-1.212-1.083 1.551-2.437 2.933-3.987 4.048z"></path>
</symbol>
<symbol id="icon-eco-friendly" viewBox="0 0 33 32">
<path fill="#33854e" style="fill: var(--color2, #33854e)" d="M32.581 15.957c0 1.201-1.339 2.236-1.595 3.359-0.262 1.162 0.489 2.675-0.016 3.722s-2.169 1.417-2.897 2.331-0.708 2.612-1.625 3.347c-0.917 0.735-2.564 0.332-3.619 0.846s-1.755 2.045-2.915 2.31c-1.122 0.255-2.425-0.818-3.624-0.818s-2.502 1.073-3.626 0.818c-1.158-0.265-1.867-1.804-2.915-2.31s-2.704-0.115-3.617-0.846c-0.913-0.731-0.893-2.428-1.627-3.347s-2.384-1.266-2.897-2.331c-0.513-1.065 0.248-2.568-0.014-3.722-0.256-1.124-1.597-2.159-1.597-3.359s1.339-2.236 1.595-3.359c0.262-1.162-0.491-2.675 0.014-3.722s2.169-1.417 2.897-2.331c0.728-0.915 0.71-2.614 1.627-3.347s2.564-0.332 3.617-0.846 1.757-2.045 2.915-2.31c1.124-0.255 2.428 0.818 3.626 0.818s2.502-1.073 3.625-0.818c1.16 0.265 1.869 1.804 2.915 2.31s2.706 0.115 3.619 0.846c0.913 0.731 0.893 2.428 1.625 3.347s2.384 1.266 2.897 2.331c0.513 1.065-0.247 2.568 0.016 3.722 0.258 1.12 1.597 2.155 1.597 3.359z"></path>
<path fill="#f9fbfc" style="fill: var(--color3, #f9fbfc)" d="M29.722 18.677c1.503-7.432-3.293-14.678-10.712-16.183s-14.65 3.299-16.153 10.732c-1.503 7.432 3.293 14.678 10.712 16.183s14.65-3.299 16.153-10.732z"></path>
<path fill="#33854e" style="fill: var(--color2, #33854e)" d="M7.705 14.183v1.555h2.507v1.356h-2.507v1.65h2.822v1.44h-4.615v-7.43h4.615v1.429h-2.822z"></path>
<path fill="#33854e" style="fill: var(--color2, #33854e)" d="M14.933 12.68c0.944 0 1.724 0.249 2.339 0.746 0.622 0.497 1.024 1.17 1.206 2.018h-1.898c-0.14-0.343-0.357-0.613-0.65-0.809-0.287-0.196-0.629-0.294-1.028-0.294-0.524 0-0.947 0.193-1.269 0.578s-0.482 0.9-0.482 1.545 0.161 1.159 0.482 1.545c0.322 0.378 0.745 0.567 1.269 0.567 0.399 0 0.741-0.098 1.028-0.294 0.294-0.196 0.511-0.462 0.65-0.799h1.898c-0.182 0.841-0.584 1.513-1.206 2.018-0.615 0.497-1.395 0.746-2.339 0.746-0.72 0-1.353-0.158-1.899-0.473-0.545-0.322-0.969-0.771-1.269-1.345-0.294-0.574-0.441-1.23-0.441-1.965s0.147-1.391 0.441-1.965c0.301-0.575 0.724-1.019 1.269-1.335 0.545-0.322 1.178-0.483 1.899-0.483z"></path>
<path fill="#33854e" style="fill: var(--color2, #33854e)" d="M23.008 12.638c0.699 0 1.332 0.165 1.898 0.494 0.573 0.322 1.024 0.774 1.353 1.356 0.329 0.575 0.493 1.226 0.493 1.955s-0.168 1.384-0.503 1.965c-0.329 0.581-0.78 1.037-1.353 1.366-0.566 0.322-1.196 0.483-1.888 0.483s-1.325-0.161-1.898-0.483c-0.566-0.329-1.017-0.785-1.353-1.366-0.329-0.581-0.493-1.236-0.493-1.965s0.164-1.38 0.493-1.955c0.336-0.581 0.787-1.033 1.353-1.356 0.573-0.329 1.206-0.494 1.898-0.494zM23.008 14.309c-0.587 0-1.056 0.193-1.406 0.578-0.343 0.378-0.514 0.897-0.514 1.555 0 0.652 0.171 1.17 0.514 1.555 0.35 0.385 0.818 0.578 1.406 0.578 0.58 0 1.045-0.193 1.395-0.578s0.524-0.904 0.524-1.555c0-0.652-0.175-1.17-0.524-1.555-0.343-0.385-0.808-0.578-1.395-0.578z"></path>
<path fill="#009387" style="fill: var(--color4, #009387)" d="M3.701 25.777l0.86-2.726-0.86-2.726h25.178l-0.858 2.726 0.858 2.726h-25.178z"></path>
<path fill="#f9fbfc" style="fill: var(--color3, #f9fbfc)" d="M28.341 20.719l-0.736 2.331 0.734 2.331h-24.099l0.734-2.331-0.734-2.331h24.101zM29.416 19.929h-26.253l0.323 1.027 0.653 2.094-0.661 2.094-0.323 1.027h26.261l-0.323-1.027-0.659-2.094 0.659-2.094 0.323-1.027z"></path>
<path fill="#009387" style="fill: var(--color4, #009387)" d="M17.819 7.857l-1.528 0.439c-0-0.466 0.151-0.92 0.431-1.292s0.673-0.644 1.121-0.772l1.528-0.439c0 0.466-0.151 0.92-0.431 1.293s-0.674 0.643-1.121 0.772z"></path>
<path fill="#009387" style="fill: var(--color4, #009387)" d="M14.736 6.223l-1.526-0.439c-0.002 0.468 0.148 0.923 0.428 1.297s0.675 0.646 1.123 0.775l1.528 0.439c0.002-0.468-0.149-0.924-0.43-1.298s-0.675-0.646-1.124-0.775z"></path>
<path fill="#009387" style="fill: var(--color4, #009387)" d="M17.819 9.728l-1.528 0.439c-0-0.466 0.151-0.92 0.431-1.292s0.673-0.644 1.121-0.772l1.528-0.439c0 0.466-0.151 0.92-0.431 1.293s-0.674 0.644-1.121 0.772z"></path>
<path fill="#009387" style="fill: var(--color4, #009387)" d="M14.736 8.102l-1.526-0.443c-0 0.466 0.151 0.92 0.431 1.293s0.674 0.644 1.121 0.772l1.528 0.439c-0.001-0.466-0.153-0.919-0.433-1.29s-0.674-0.642-1.121-0.77z"></path>
<path fill="#009387" style="fill: var(--color4, #009387)" d="M16.291 7.043c-0.226-0.226-0.405-0.495-0.528-0.79s-0.185-0.612-0.185-0.933c0-0.32 0.063-0.637 0.185-0.933s0.302-0.564 0.528-0.79c0.226 0.226 0.405 0.495 0.528 0.79s0.185 0.613 0.185 0.933-0.063 0.637-0.185 0.933c-0.122 0.296-0.302 0.564-0.528 0.79z"></path>
<path fill="#f9fbfc" style="fill: var(--color3, #f9fbfc)" d="M8.576 21.986v0.536h-1.14v0.611h0.881v0.512h-0.881v1.127h-0.672v-2.785h1.813z"></path>
<path fill="#f9fbfc" style="fill: var(--color3, #f9fbfc)" d="M10.349 24.771l-0.602-1.052h-0.153v1.052h-0.672v-2.785h1.148c0.22 0 0.406 0.038 0.558 0.114s0.266 0.181 0.342 0.315c0.076 0.131 0.114 0.282 0.114 0.453 0 0.202-0.056 0.374-0.169 0.516-0.11 0.142-0.271 0.239-0.484 0.292l0.661 1.095h-0.743zM9.594 23.258h0.417c0.134 0 0.232-0.029 0.295-0.087 0.063-0.060 0.094-0.148 0.094-0.264 0-0.11-0.033-0.197-0.098-0.26-0.063-0.063-0.16-0.095-0.291-0.095h-0.417v0.705z"></path>
<path fill="#f9fbfc" style="fill: var(--color3, #f9fbfc)" d="M12.094 21.986v2.785h-0.672v-2.785h0.672z"></path>
<path fill="#f9fbfc" style="fill: var(--color3, #f9fbfc)" d="M13.23 22.522v0.583h0.94v0.508h-0.94v0.619h1.058v0.54h-1.73v-2.785h1.73v0.536h-1.058z"></path>
<path fill="#f9fbfc" style="fill: var(--color3, #f9fbfc)" d="M17.139 24.771h-0.672l-1.125-1.71v1.71h-0.672v-2.785h0.672l1.125 1.726v-1.726h0.672v2.785z"></path>
<path fill="#f9fbfc" style="fill: var(--color3, #f9fbfc)" d="M20.104 23.372c0 0.273-0.059 0.516-0.177 0.729-0.115 0.21-0.283 0.374-0.503 0.492-0.218 0.118-0.474 0.177-0.771 0.177h-1.050v-2.785h1.050c0.299 0 0.557 0.058 0.775 0.173s0.384 0.278 0.499 0.488c0.118 0.21 0.177 0.452 0.177 0.725zM18.594 24.168c0.262 0 0.465-0.070 0.609-0.209 0.147-0.139 0.22-0.335 0.22-0.587s-0.073-0.448-0.22-0.587c-0.144-0.139-0.347-0.209-0.609-0.209h-0.319v1.592h0.319z"></path>
<path fill="#f9fbfc" style="fill: var(--color3, #f9fbfc)" d="M21.16 24.255h0.897v0.516h-1.569v-2.785h0.672v2.269z"></path>
<path fill="#f9fbfc" style="fill: var(--color3, #f9fbfc)" d="M24.767 21.986l-0.963 1.859v0.926h-0.676v-0.926l-0.963-1.859h0.771l0.535 1.135 0.535-1.135h0.763z"></path>
</symbol>
<symbol id="icon-logo" viewBox="0 0 174 32">
<path fill="#080b1d" style="fill: var(--color5, #080b1d)" d="M78.278 13.033c0-3.78-2.309-6.19-6.212-6.19h-6.927v19.173h4.7v-6.711h2.254c3.738 0 6.185-2.547 6.185-6.272zM71.434 10.869c1.292 0 2.034 0.876 2.034 2.164 0 1.315-0.714 2.246-2.089 2.246h-1.539v-4.41h1.594z"></path>
<path fill="#080b1d" style="fill: var(--color5, #080b1d)" d="M79.366 18.867c0 4.328 3.244 7.505 7.834 7.505 4.563 0 7.916-3.232 7.916-7.56 0-4.355-3.271-7.532-7.916-7.532-4.453 0-7.834 3.232-7.834 7.587zM83.957 18.867c0-2.109 1.347-3.561 3.244-3.561 1.869 0 3.326 1.397 3.326 3.506 0 2.054-1.429 3.533-3.326 3.533-1.869 0-3.244-1.397-3.244-3.479z"></path>
<path fill="#080b1d" style="fill: var(--color5, #080b1d)" d="M101.637 26.372c3.298 0 5.882-1.808 5.882-4.739 0-5.204-6.652-4.163-6.652-5.971 0-0.438 0.385-0.712 1.044-0.712 1.127 0 1.952 0.685 2.391 1.123l2.968-2.328c-0.852-1.15-2.419-2.465-5.167-2.465-3.134 0-5.553 1.671-5.553 4.437 0 5.232 6.597 4.519 6.597 6.163 0 0.52-0.413 0.794-1.292 0.794-1.457 0-2.419-0.575-3.189-1.26l-2.584 2.492c0.852 1.15 2.804 2.465 5.552 2.465z"></path>
<path fill="#080b1d" style="fill: var(--color5, #080b1d)" d="M114.208 8.596h-4.591v3.040h-1.402v3.698h1.402v5.067c0 4.273 1.98 5.834 5.388 5.834 1.154 0 1.759-0.164 1.759-0.164v-3.917c-0.302 0.027-0.523 0.027-0.769 0.027-0.935 0-1.787-0.301-1.787-1.561v-5.286h2.446v-3.698h-2.446v-3.040z"></path>
<path fill="#080b1d" style="fill: var(--color5, #080b1d)" d="M132.419 13.033c0-3.78-2.308-6.19-6.212-6.19h-6.926v19.173h4.7v-6.711h2.254c3.739 0 6.185-2.547 6.185-6.272zM125.575 10.869c1.292 0 2.034 0.876 2.034 2.164 0 1.315-0.715 2.246-2.090 2.246h-1.539v-4.41h1.595z"></path>
<path fill="#080b1d" style="fill: var(--color5, #080b1d)" d="M138.841 11.636h-4.591v14.38h4.591v-14.38zM136.503 10.76c1.457 0 2.585-1.041 2.585-2.465 0-1.452-1.127-2.493-2.585-2.493s-2.556 1.041-2.556 2.493c0 1.424 1.099 2.465 2.556 2.465z"></path>
<path fill="#080b1d" style="fill: var(--color5, #080b1d)" d="M141.471 26.016h4.59v-19.803h-4.59v19.803z"></path>
<path fill="#080b1d" style="fill: var(--color5, #080b1d)" d="M147.949 18.867c0 4.328 3.244 7.505 7.834 7.505 4.563 0 7.917-3.232 7.917-7.56 0-4.355-3.271-7.532-7.917-7.532-4.452 0-7.834 3.232-7.834 7.587zM152.54 18.867c0-2.109 1.346-3.561 3.243-3.561 1.87 0 3.326 1.397 3.326 3.506 0 2.054-1.429 3.533-3.326 3.533-1.869 0-3.243-1.397-3.243-3.479z"></path>
<path fill="#080b1d" style="fill: var(--color5, #080b1d)" d="M170.577 8.596h-4.59v3.040h-1.403v3.698h1.403v5.067c0 4.273 1.979 5.834 5.387 5.834 1.154 0 1.76-0.164 1.76-0.164v-3.917c-0.303 0.027-0.523 0.027-0.77 0.027-0.934 0-1.787-0.301-1.787-1.561v-5.286h2.446v-3.698h-2.446v-3.040z"></path>
<path fill="#02a99b" style="fill: var(--color6, #02a99b)" d="M1.268 1.729c-0.491-0.553-0.099-1.427 0.641-1.427h47.114c4.127 0 7.473 3.346 7.473 7.473v16.739c0 4.127-3.346 7.473-7.473 7.473h-23.142c-1.061 0-2.071-0.454-2.776-1.247l-2.407-2.707c-0.491-0.553-0.099-1.427 0.641-1.427h27.684c1.156 0 2.092-0.937 2.092-2.092v-16.739c0-1.156-0.937-2.092-2.092-2.092h-42.572c-1.061 0-2.071-0.454-2.776-1.247l-2.407-2.707z"></path>
<path fill="#02a99b" style="fill: var(--color6, #02a99b)" d="M21.68 0.088l13.779 14.979c0.353 0.384 0.958 0.387 1.314 0.006l12.125-12.94 3.926 3.679-12.125 12.94c-2.496 2.664-6.729 2.644-9.201-0.042l-13.779-14.979 3.96-3.643z"></path>
<path fill="#02a99b" style="fill: var(--color6, #02a99b)" d="M11.743 15.482c-0.495-0.552-0.103-1.429 0.638-1.429h8.609c0.789 0 1.428 0.64 1.428 1.428v2.524c0 0.789-0.64 1.428-1.428 1.428h-4.685c-0.65 0-1.268-0.276-1.702-0.76l-2.86-3.191z"></path>
</symbol>
<symbol id="icon-star-white" viewBox="0 0 36 32">
<path fill="#fff" style="fill: var(--color7, #fff)" d="M17.778 0l5.493 10.532 12.284 1.699-8.889 8.194 2.098 11.575-10.987-5.468-10.987 5.468 2.098-11.575-8.889-8.194 12.284-1.699 5.493-10.532z"></path>
</symbol>
<symbol id="icon-star" viewBox="0 0 36 32">
<path fill="#fdc639" style="fill: var(--color8, #fdc639)" d="M17.778 0l5.493 10.532 12.284 1.699-8.889 8.194 2.098 11.575-10.987-5.468-10.987 5.468 2.098-11.575-8.889-8.194 12.284-1.699 5.493-10.532z"></path>
</symbol>
<symbol id="icon-support" viewBox="0 0 32 32">
<path fill="#ffe8dc" style="fill: var(--color9, #ffe8dc)" stroke-linejoin="miter" stroke-linecap="square" stroke-miterlimit="10" stroke-width="2.6667" stroke="#000" d="M26.909 5.333h-21.818c-1.339 0-2.424 1.061-2.424 2.37v16.593c0 1.309 1.085 2.37 2.424 2.37h21.818c1.339 0 2.424-1.061 2.424-2.37v-16.593c0-1.309-1.085-2.37-2.424-2.37z"></path>
<path stroke-linejoin="miter" stroke-linecap="square" stroke-miterlimit="10" stroke-width="2.6667" d="M11.533 19.841l-1.293 1.207"></path>
<path stroke-linejoin="miter" stroke-linecap="square" stroke-miterlimit="10" stroke-width="2.6667" d="M20.464 19.841l1.293 1.207"></path>
<path stroke-linejoin="miter" stroke-linecap="square" stroke-miterlimit="10" stroke-width="2.6667" d="M22.059 10.668l-6.061 5.926-6.061-5.926"></path>
</symbol>
</defs>
</svg>
